<mxfile host="app.diagrams.net" modified="2023-12-01T04:55:29.015Z" agent="Mozilla/5.0 (Windows NT 10.0; Win64; x64; rv:120.0) Gecko/20100101 Firefox/120.0" etag="_NU7BXczl5rNdy9-Q2_w" version="22.1.5" type="github">
  <diagram name="PÃ¡gina-1" id="0SU0MJansGinVYgPt3Em">
    <mxGraphModel dx="880" dy="442" grid="1" gridSize="10" guides="1" tooltips="1" connect="1" arrows="1" fold="1" page="1" pageScale="1" pageWidth="827" pageHeight="1169" math="0" shadow="0">
      <root>
        <mxCell id="0" />
        <mxCell id="1" parent="0" />
        <mxCell id="cXPFrrMtKNsXjSgKLZah-1" value="&lt;div&gt;Fonte do arquivo xlsx&lt;/div&gt;" style="rounded=0;whiteSpace=wrap;html=1;fillColor=#dae8fc;strokeColor=#6c8ebf;" vertex="1" parent="1">
          <mxGeometry x="50" y="40" width="120" height="60" as="geometry" />
        </mxCell>
        <mxCell id="cXPFrrMtKNsXjSgKLZah-2" value="" style="endArrow=classic;html=1;rounded=0;shape=flexArrow;" edge="1" parent="1">
          <mxGeometry width="50" height="50" relative="1" as="geometry">
            <mxPoint x="109.5" y="110" as="sourcePoint" />
            <mxPoint x="109.5" y="180" as="targetPoint" />
            <Array as="points">
              <mxPoint x="109.5" y="150" />
            </Array>
          </mxGeometry>
        </mxCell>
        <mxCell id="cXPFrrMtKNsXjSgKLZah-3" value="Mega-Sena" style="whiteSpace=wrap;html=1;shape=mxgraph.basic.document;fillColor=#d5e8d4;strokeColor=#82b366;" vertex="1" parent="1">
          <mxGeometry x="60" y="190" width="100" height="100" as="geometry" />
        </mxCell>
        <mxCell id="cXPFrrMtKNsXjSgKLZah-6" value="" style="endArrow=classic;html=1;rounded=0;shape=flexArrow;" edge="1" parent="1">
          <mxGeometry width="50" height="50" relative="1" as="geometry">
            <mxPoint x="180" y="239.5" as="sourcePoint" />
            <mxPoint x="250" y="239.5" as="targetPoint" />
          </mxGeometry>
        </mxCell>
        <mxCell id="cXPFrrMtKNsXjSgKLZah-7" value="" style="shape=process;whiteSpace=wrap;html=1;backgroundOutline=1;fillColor=#dae8fc;strokeColor=#6c8ebf;" vertex="1" parent="1">
          <mxGeometry x="270" y="210" width="120" height="60" as="geometry" />
        </mxCell>
      </root>
    </mxGraphModel>
  </diagram>
</mxfile>
